<?xml version="1.0" encoding="UTF-8"?>
<svg version="1.1" xmlns="http://www.w3.org/2000/svg" width="192" height="192">
<path d="M0 0 C-0.65387994 5.37221811 -1.89477437 7.40792757 -6 11 C-6.33 11.33 -6.66 11.66 -7 12 C-9.26818306 12.25406099 -11.53988083 12.47677858 -13.8125 12.6875 C-32.79119169 14.81333884 -51.42862166 21.47082241 -66 34 C-66.97195312 34.77472656 -67.94390625 35.54945312 -68.9453125 36.34765625 C-84.54290922 49.37992319 -93.99534314 72.22566876 -96 92 C-97.58395619 115.75934291 -88.98483094 136.28519866 -73.75 154.1875 C-58.62725565 170.29090012 -37.43022222 179.37626977 -15.421875 180.12109375 C8.44749197 180.63326225 32.74099085 173.89563009 51 158 C51.87978516 157.33291016 51.87978516 157.33291016 52.77734375 156.65234375 C67.43591551 145.25123238 76.64935746 125.08017577 79 107 C80.27095347 87.9754152 77.5117124 69.88050833 64.9375 54.75 C49.87276993 39.10874948 26.51291442 33.21142312 5.44604492 32.59716797 C-16.97025971 32.33886112 -39.04446039 40.59493982 -55.625 56.0625 C-68.35143171 69.49722504 -74.59562989 85.25352588 -74.28515625 103.78125 C-74.00923285 109.88206881 -72.24161865 115.35299553 -70 121 C-69.72285156 121.73605469 -69.44570312 122.47210938 -69.16015625 123.23046875 C-62.53801247 138.51938134 -46.71131158 147.86159221 -32 154 C-15.28995736 160.40453125 0.79714574 159.44824258 17.078125 152.234375 C33.97453498 144.38086358 46.26450559 133.18534164 54 116 C57.92096916 104.98207666 57.69180369 90.37998711 53.3203125 79.54296875 C47.39223734 68.12528553 38.93988176 62.58333598 26.89453125 58.76171875 C19.26559191 56.75410314 11.78038665 56.74700597 3.9375 56.6875 C2.69033203 56.65849609 1.44316406 56.62949219 0.15820312 56.59960938 C-14.13324002 56.50299535 -26.92414259 60.42082285 -37.6875 70.0625 C-47.20400098 80.21042759 -50.50132464 92.05611863 -50.2421875 105.53125 C-49.69197651 113.41169127 -47.67811422 119.47951781 -42.14453125 125.24609375 C-31.2497215 134.15642085 -16.46855433 135.03349458 -3 134 C8.05217995 132.46564096 17.37946075 129.09748158 24.4921875 120.21484375 C30.00225106 112.12104573 31.27428011 103.68912083 30 94 C27.48870197 87.92616291 24.4144816 85.39013712 19.125 81.6875 C13.28705054 79.79875165 6.49011568 81.18757233 0.515625 81.87890625 C-1.95364092 81.99776843 -3.64483147 81.66809883 -6 81 C-11.70130981 80.63217356 -14.99234303 80.94655063 -20 84 C-20.33 84.33 -20.66 84.66 -21 85 C-20.99577067 86.75728771 -20.98467086 88.51487833 -20.93554688 90.27148438 C-20.72796431 97.69758332 -21.17791395 104.0119774 -24 111 C-22.56208484 110.85831863 -21.1246763 110.71148957 -19.6875 110.5625 C-18.88699219 110.48128906 -18.08648437 110.40007812 -17.26171875 110.31640625 C-14.83912821 110.04734307 -14.83912821 110.04734307 -12 109 C-5.92148246 108.67090829 0.01123956 108.93533148 6 110 C6.13074409 106.0694578 6.13074409 106.0694578 5.3125 102.5625 C5 99 5 99 6.1875 96.125 C8.14079774 93.83492679 9.05577584 93.30457491 12 93 C16.27008249 97.82704977 16.16194351 103.34717975 16.25 109.5625 C16.27578125 110.65691406 16.3015625 111.75132813 16.328125 112.87890625 C15.85668485 117.36320004 14.16718729 119.93579982 10.875 122.9375 C7.15701361 124.31153845 5.14154824 123.50071803 1.40625 122.4921875 C-4.44416566 121.29551157 -9.59804549 122.81001844 -15 125 C-18.33711832 125.66742366 -20.17224015 125.53190652 -23.0546875 123.6796875 C-28.12320487 119.53947001 -31.5166485 115.52448696 -32.23828125 108.76953125 C-32.35010308 105.25597166 -32.2322033 102.61273417 -30.97265625 99.2890625 C-29.51683708 94.36617196 -29.97989739 89.63069241 -30.25390625 84.54492188 C-30.35753871 80.90864184 -30.24503432 78.52124164 -28.6796875 75.19140625 C-20.494027 68.49730197 -10.61471959 68.36098525 -0.51049805 68.47851562 C1.69527767 68.50007602 3.89783474 68.47855917 6.10351562 68.453125 C15.00532608 68.43392032 21.31354049 69.06398662 28.390625 75.0078125 C37.79233393 85.71311973 39.81751587 96.95780556 39.17919922 110.93408203 C38.33924084 120.61763489 34.24650655 130.05297691 27.15234375 136.7421875 C14.34062155 146.98137701 -1.19705598 148.09009917 -17 147 C-30.56286669 145.26914563 -41.36678471 140.88248211 -50 130 C-58.59271075 116.7544677 -61.31704292 99.8993899 -58.30859375 84.44921875 C-54.13006732 69.57086733 -45.02496438 57.29843161 -31.69140625 49.3984375 C-27.87570934 47.41582575 -24.16275395 46.04806926 -20 45 C-19.31421875 44.79632813 -18.6284375 44.59265625 -17.921875 44.3828125 C-1.26572343 40.13141717 22.78443727 41.54978969 38 50 C52.19155045 58.47076986 60.33249392 71.70763232 64.375 87.625 C67.34292041 106.10565902 64.8446677 124.04684149 54.18359375 139.66015625 C42.22997953 155.28437524 25.36975389 166.35734106 6.12109375 170.640625 C-6.7441084 172.12197493 -18.83014604 171.58247587 -31 167 C-32.02351563 166.63777344 -33.04703125 166.27554688 -34.1015625 165.90234375 C-53.2494158 158.60438933 -67.96957847 144.68922323 -76.71875 126.21875 C-84.48835143 106.69999518 -85.16016091 86.3210295 -77.375 66.75 C-74.15458616 59.75117982 -69.96438842 53.86466612 -65 48 C-64.40832031 47.28328125 -63.81664062 46.5665625 -63.20703125 45.828125 C-49.07294938 30.22759314 -24.6473152 21.14514521 -4 20 C19.07139063 18.93835352 44.97277015 24.38665995 63.3125 39.25 C71.76793923 47.26135103 77.4479348 57.39156304 82 68 C82.51046875 69.14726563 83.0209375 70.29453125 83.546875 71.4765625 C87.42862888 81.41052748 87.50251447 91.66464846 87.5625 102.1875 C87.57135223 102.91207397 87.58020447 103.63664795 87.58932495 104.38317871 C87.69889226 117.63239528 85.16587717 129.54224832 79.375 141.5625 C79.03509033 142.27156494 78.69518066 142.98062988 78.3449707 143.71118164 C67.56340341 165.32534459 47.63314586 180.40446851 25.01074219 188.14599609 C14.99095904 191.46726952 6.45443356 192.27850161 -4.03051758 192.35009766 C-5.77870152 192.36648236 -7.52682355 192.39353371 -9.2746582 192.43212891 C-36.22912591 193.02261634 -58.21875823 182.97253014 -77.75 164.625 C-90.51781951 151.05316163 -98.83803431 135.83425915 -104 118 C-104.17885742 117.42572266 -104.35771484 116.85144531 -104.54199219 116.25976562 C-105.61608543 110.96029494 -105.26709148 105.3913176 -105.29516602 99.99584961 C-105.30657484 98.4765483 -105.32684595 96.95728344 -105.35668945 95.43823242 C-105.62749242 81.62425521 -103.51927325 69.42903796 -97.6875 56.75 C-97.38827637 56.08653564 -97.08905273 55.42307129 -96.78076172 54.73950195 C-86.65770885 32.85919327 -69.79299824 15.89471482 -47.21142578 7.09082031 C-31.69499953 1.46479903 -16.4469543 -0.85463388 0 0 Z " fill="#FA8612" transform="translate(105,0)"/>
</svg>
