<svg xmlns="http://www.w3.org/2000/svg" width="62" height="62" viewBox="0 0 62 62" fill="none">
<path d="M27.9119 28.5435C26.3579 28.3495 19.9587 28.1953 20.2062 35.6611C20.6021 39.8441 24.7643 40.9284 24.789 40.9284C27.9218 41.7093 31.5495 40.4957 32.7372 38.2823C34.7367 34.5569 33.6627 29.6576 27.9119 28.5435ZM30.5201 39.0333C30.238 39.1975 29.8272 39.0135 29.0947 38.725C28.3623 38.4365 27.1745 37.9689 26.4222 36.5961C25.67 35.2234 24.9177 34.6663 23.9378 34.1341C22.9628 33.6019 22.6412 31.9804 23.2004 30.8812C23.7893 29.7173 24.1011 30.4534 23.8834 30.7618C23.8834 30.7618 23.2895 32.1744 24.2397 33.1095C25.1899 34.0446 26.4965 34.1391 26.9023 35.3477C27.3081 36.5663 28.1198 37.4964 29.3323 37.8695C30.5448 38.2475 30.8022 38.8692 30.5201 39.0333Z" fill="#FA8314"/>
<path d="M48.3237 39.9984C48.3237 42.3953 47.0208 43.4294 46.0857 44.1008C42.655 46.5751 38.0296 43.5006 33.1771 42.134C31.5115 41.6644 30.5677 41.8112 29.8399 41.9421C27.9136 42.2767 27.9801 41.7419 28.6241 41.6364C32.2648 41.0322 35.4624 39.099 34.505 33.2048C44.0962 30.6473 48.3237 37.6015 48.3237 39.9984Z" fill="#FA8314"/>
<path d="M42.6454 1.90497C42.2098 0.969907 40.5073 0 38.404 0C30.9557 0 29.753 0.736122 27.6794 6.54061C25.9076 11.4846 23.0767 11.3304 18.7859 11.0917C17.7713 11.037 16.7221 10.9773 15.564 10.9773C12.9361 10.9773 8.14043 11.41 5.59663 14.3048C4.24552 15.8417 3.71597 17.881 4.02776 20.363C4.56722 24.725 3.25571 27.0876 1.98875 29.3657C1.07813 31.007 0.216973 32.5589 0.0586261 34.7922C0.0487172 34.8667 -0.658996 41.671 3.1221 45.2323C6.72501 48.5498 4.55236 52.708 2.80535 56.0455C1.83037 57.9106 0.989056 59.5222 1.51365 60.3976C1.86006 60.9696 2.79545 61.2481 4.38411 61.2481C5.39371 61.2481 6.34887 61.2531 7.2397 61.2531C10.4912 61.268 13.5597 61.2829 13.8418 60.9944C14.1338 60.6513 14.1239 56.7169 13.723 55.941C13.6141 55.7271 13.2479 55.4635 12.7827 55.1303C11.7731 54.3991 10.2438 53.2899 9.29853 51.2407C8.22951 48.9079 8.36315 43.3024 8.48192 38.3534C8.51657 36.8264 8.55121 35.3791 8.55121 34.0759C8.55121 30.2361 9.00652 23.392 12.065 20.6813C14.208 18.7862 16.3609 18.3685 19.0828 17.8363C19.6223 17.7318 20.1865 17.6224 20.7804 17.4931L21.8593 17.2642C24.5763 16.6923 25.8136 16.4336 28.6593 14.9266C32.673 12.8574 32.4156 8.14718 32.4156 8.09743C32.4156 7.94324 32.5047 4.64059 34.1973 4.64059C35.3356 4.64059 35.6375 5.26232 35.8156 5.63041C35.8453 5.6901 35.8849 5.76469 35.9146 5.80947C35.9592 5.74978 36.0235 5.62544 36.0779 5.52097C36.3848 4.93904 36.949 3.85474 38.5624 4.04873C39.1117 4.10841 39.5472 4.21285 39.9036 4.29742C40.8884 4.5262 41.1903 4.60082 41.8436 3.45684C41.9723 3.28771 42.3088 2.9644 42.5662 2.89974C42.7889 2.60132 42.8136 2.26808 42.6454 1.90497ZM60.942 46.9333C60.7144 45.5357 60.4917 44.2176 60.3828 43.1035C60.0413 39.6019 60.4026 36.0356 60.7787 32.2654C61.0658 29.4104 61.3627 26.456 61.3627 23.3821C61.3627 19.224 55.7307 18.6122 50.7668 18.08C47.5449 17.7318 44.7685 17.4334 44.1697 16.1352C43.6549 15.0559 44.1152 14.27 44.6448 13.3648C45.2535 12.3202 45.9464 11.1414 45.5851 9.0375C45.4663 8.37597 45.4465 7.66471 45.4317 6.97333C45.3921 5.0435 45.3574 3.50657 43.3927 3.4021C43.7836 4.61075 44.1647 7.60005 43.1749 10.6142C41.6654 15.1852 38.6811 15.6477 38.3446 15.6826C38.1714 15.7025 37.9833 15.7174 37.8002 15.7323C37.429 15.7622 36.8153 15.8069 36.7213 15.9164C36.7312 15.9164 36.7758 16.0258 37.1321 16.2745C38.503 17.3041 42.19 18.2242 45.7533 19.1145C48.4803 19.796 51.2963 20.5022 53.2363 21.2782C57.4727 23.0887 57.74 28.162 58.0271 33.5338C58.131 35.4238 58.2349 37.3785 58.5121 39.2487C59.5959 45.67 58.5517 48.6344 57.4876 49.9873C56.8937 50.7384 56.2454 51.0368 55.8297 51.0616C55.0081 51.181 54.5676 51.0865 54.4885 50.7831C54.4241 50.5494 54.6468 50.2957 55.0625 50.1315C58.3438 48.3857 57.4282 42.1336 56.5423 36.0854C56.1217 33.2204 55.6911 30.251 55.6911 27.7293C55.6911 22.8201 49.8413 21.4821 44.1845 20.1889C40.9033 19.4428 37.8051 18.7315 35.8899 17.3588C34.5833 16.4684 34.6081 15.7224 34.7417 15.3593C34.9693 14.7276 35.8107 14.3744 36.8351 14.4789C39.765 14.7923 41.2447 11.8079 41.8683 9.99745C42.7047 7.5553 42.6899 5.29219 42.3632 5.08825C42.0712 4.9092 41.8486 5.01363 41.418 5.26232C40.8191 5.60057 39.9976 6.06314 38.5376 5.43643C37.4241 5.09323 36.9539 6.00345 36.4937 7.13748C36.261 7.71446 36.0829 8.19193 35.7117 8.16209C35.1673 8.15216 35.0089 7.47072 34.8703 6.8689C34.801 6.55555 34.712 6.16757 34.5932 6.08302C34.5239 6.02832 34.4546 6.02334 34.3804 6.05816C34.2814 6.11287 33.7815 6.47595 33.7815 8.63461C33.7815 12.1163 32.4701 14.1407 31.3664 15.23C30.1638 16.4088 28.976 16.7569 28.9216 16.7718C28.877 16.7918 22.8045 19.0151 19.7905 19.4329C11.2336 20.9449 10.516 27.3363 10.516 33.7526C10.516 34.812 10.4318 36.0754 10.3477 37.4134C9.93198 43.6605 9.37273 52.2206 16.0243 54.9562C19.4095 56.319 26.8182 58.3732 33.0689 57.4232L33.0986 57.4183L33.1233 57.4232C42.3038 58.9253 50.836 56.4185 53.6422 55.5978C53.8896 55.5232 54.0975 55.4635 54.2657 55.4187C56.2998 54.8467 57.2302 54.031 57.2401 53.5137C57.2401 53.2253 56.9234 53.086 56.7353 53.0263C56.2751 52.887 55.4238 52.9567 54.434 53.0413C52.781 53.1805 50.5143 53.3695 48.3665 52.7179C44.9565 51.6784 41.8287 52.0017 39.76 52.2156C38.6267 52.2902 37.4835 51.6485 36.0433 50.8378C33.5093 49.4103 30.0203 47.4457 23.7943 47.5103L23.5073 47.5053C22.9184 47.4954 22.364 47.4854 22.171 47.1621C22.1265 47.0925 22.1215 47.008 22.1611 46.9333C22.2453 46.7642 22.4927 46.7244 23.1757 46.6648C23.3786 46.6498 23.6755 46.625 23.8636 46.5852C23.6854 46.4708 23.3637 46.2867 23.052 46.1126C21.7949 45.4014 19.6965 44.2176 18.8007 42.9592C18.0732 41.9396 17.9 40.9498 18.3355 40.3082C18.7463 39.7063 19.6222 39.4974 20.8397 39.7014C19.5233 38.2141 18.7759 35.4736 19.2115 33.4393C19.5381 31.8476 20.1815 30.5196 20.9832 29.7885C21.1169 29.3657 22.0572 26.5157 22.8589 26.0531C23.0371 25.9486 23.1509 26.0033 23.2054 26.0481C23.4083 26.2172 23.3093 26.6102 22.9876 27.6149C22.9084 27.8486 22.8144 28.1421 22.7649 28.3411C22.7748 28.3361 22.7847 28.3262 22.7946 28.3212C23.3736 27.9929 24.7297 27.2219 27.7981 27.4259C30.6933 27.6945 32.8797 29.112 33.9092 31.5194C35.864 31.0916 43.7836 29.7487 47.8666 35.5581C48.1239 35.9212 48.3862 36.5131 48.6386 37.0801C48.8366 37.5228 49.1236 38.1694 49.282 38.3435C49.376 38.1346 49.4008 37.3686 49.0791 35.0756C48.6436 32.0018 47.2776 29.5398 45.0258 27.7641C44.7487 27.6348 44.2934 27.0727 44.3874 26.7245C44.422 26.6002 44.5457 26.4012 44.9862 26.4908C45.6791 26.5057 48.7475 28.5798 50.0145 32.3599C50.8261 34.6927 50.9598 37.5875 50.3609 40.0993C49.6829 42.9692 48.1437 44.9736 46.0305 45.7297C42.3484 46.7344 38.3446 45.1328 35.4197 43.959C34.5981 43.6307 33.8904 43.3472 33.3163 43.1731C31.5841 42.6459 30.2974 42.8399 29.0552 43.0239C28.4662 43.1134 27.8525 43.203 27.2042 43.2179C25.9274 43.2527 24.4476 42.6111 23.141 42.059C22.3541 41.7257 21.6068 41.4124 20.9882 41.2631C20.1518 41.0642 19.741 41.2084 19.6322 41.4074C19.5233 41.6113 19.6322 42.044 20.2607 42.6459C21.9978 44.3121 24.7544 45.6998 27.8129 46.4558C28.2881 46.5703 28.778 46.6797 29.2878 46.799C31.9751 47.4059 35.0237 48.0923 38.8444 50.2509C38.8494 50.2509 39.8986 50.7881 40.9725 50.4946C41.893 50.241 44.1449 50.0122 48.8168 51.3153C51.0637 51.937 52.9394 51.8674 54.4488 51.8127C55.8049 51.7679 56.8739 51.7282 57.7697 52.1609C58.6358 52.5787 58.804 53.1507 58.7892 53.5536C58.7545 54.5483 57.6162 55.6177 55.8148 56.3489C55.7108 56.5329 55.9929 57.4282 56.181 58.03C56.5274 59.1392 56.9135 60.3777 56.7155 61.2382C58.3586 61.1934 59.5612 60.6861 60.4026 59.6913C62.6247 57.0551 61.6943 51.4446 60.942 46.9333ZM38.889 24.9041C37.6468 25.302 36.8104 26.2371 36.068 27.0578C35.4296 27.769 34.8803 28.3858 34.2369 28.3858C33.5539 28.3858 33.2174 27.7939 32.8264 27.1075C32.4206 26.3913 31.9158 25.501 30.8418 24.9439C29.9362 24.4763 29.3917 23.969 29.3868 23.586C29.3868 23.4468 29.4561 23.3274 29.5749 23.2627C29.9262 23.0688 30.7033 23.3274 31.6535 23.9491C33.0541 24.8643 33.5985 25.7347 33.9251 26.257C34.1132 26.5604 34.2121 26.7146 34.3309 26.7245H34.3359C34.4348 26.7245 34.7219 26.3963 34.9347 26.1525C35.5929 25.4015 36.6916 24.1431 38.6069 23.7452C40.4628 23.3871 40.5568 23.7502 40.5865 23.8696C40.6212 24.0188 40.7004 24.3222 38.889 24.9041ZM54.0381 56.7717C53.2066 56.4085 43.5609 60.4821 32.762 58.8507C28.5207 59.6217 24.2794 58.98 20.0974 57.8709C18.6622 57.4879 16.4895 55.9858 15.8065 56.5976C15.1285 57.2044 15.4749 61.0989 15.8164 61.3327C16.1629 61.5714 17.9445 61.0342 19.167 61.1835C30.9358 62.9094 32.0147 61.0143 44.2785 61.0094C47.1243 61.0044 54.1767 61.9047 54.8943 61.3774C55.6119 60.8502 54.8745 57.1397 54.0381 56.7717Z" fill="#FA8314"/>
</svg>