<svg width="40" height="40" viewBox="0 0 40 40" fill="none" xmlns="http://www.w3.org/2000/svg">
<path d="M19.9931 34.988C28.2746 34.988 34.988 28.2746 34.988 19.9931C34.988 11.7117 28.2746 4.99829 19.9931 4.99829C11.7117 4.99829 4.99829 11.7117 4.99829 19.9931C4.99829 28.2746 11.7117 34.988 19.9931 34.988Z" stroke="#FF8C00" stroke-width="2.49914"/>
<path d="M19.9931 29.9897C25.5141 29.9897 29.9897 25.5141 29.9897 19.9931C29.9897 14.4722 25.5141 9.99657 19.9931 9.99657C14.4722 9.99657 9.99658 14.4722 9.99658 19.9931C9.99658 25.5141 14.4722 29.9897 19.9931 29.9897Z" stroke="#FF8C00" stroke-width="2.49914"/>
<path d="M19.9932 24.9914C22.7536 24.9914 24.9914 22.7536 24.9914 19.9931C24.9914 17.2327 22.7536 14.9949 19.9932 14.9949C17.2327 14.9949 14.9949 17.2327 14.9949 19.9931C14.9949 22.7536 17.2327 24.9914 19.9932 24.9914Z" fill="#FF8C00"/>
</svg>

