<svg width="24" height="24" viewBox="0 0 24 24" fill="none" xmlns="http://www.w3.org/2000/svg">
<path d="M8.99951 2.25C9.41373 2.25 9.74951 2.58579 9.74951 3V3.25H8.24951V3C8.24951 2.58579 8.5853 2.25 8.99951 2.25Z" fill="#13193A"/>
<path fill-rule="evenodd" clip-rule="evenodd" d="M3.86831 18.7448C2.22612 18.6378 1.16024 16.9164 1.84191 15.3826C2.44021 14.0364 2.74936 12.5797 2.74936 11.1065V7.5C2.74936 5.15279 4.65215 3.25 6.99936 3.25H8.24951V3.5C8.24951 3.91421 8.5853 4.25 8.99951 4.25C9.41373 4.25 9.74951 3.91421 9.74951 3.5V3.25H15.2495V3.5C15.2495 3.91421 15.5853 4.25 15.9995 4.25C16.4137 4.25 16.7495 3.91421 16.7495 3.5V3.25H17.9994C20.3466 3.25 22.2494 5.15279 22.2494 7.5V12.2676C22.2494 13.1414 22.1537 14.0127 21.9641 14.8658C21.9352 14.9961 21.9013 15.1242 21.8626 15.25C21.2277 17.3154 19.3136 18.75 17.1223 18.75C17.1222 18.75 17.1223 18.75 17.1223 18.75H4.03053C4.03045 18.75 4.0306 18.75 4.03053 18.75C3.97595 18.75 3.92171 18.7482 3.86831 18.7448ZM7.24951 9C7.24951 8.58579 7.5853 8.25 7.99951 8.25H8.24951C8.66373 8.25 8.99951 8.58579 8.99951 9C8.99951 9.41421 8.66373 9.75 8.24951 9.75H7.99951C7.5853 9.75 7.24951 9.41421 7.24951 9ZM7.24951 13C7.24951 12.5858 7.5853 12.25 7.99951 12.25H8.24951C8.66373 12.25 8.99951 12.5858 8.99951 13C8.99951 13.4142 8.66373 13.75 8.24951 13.75H7.99951C7.5853 13.75 7.24951 13.4142 7.24951 13ZM11.9995 8.25C11.5853 8.25 11.2495 8.58579 11.2495 9C11.2495 9.41421 11.5853 9.75 11.9995 9.75H12.2495C12.6637 9.75 12.9995 9.41421 12.9995 9C12.9995 8.58579 12.6637 8.25 12.2495 8.25H11.9995ZM11.2495 13C11.2495 12.5858 11.5853 12.25 11.9995 12.25H12.2495C12.6637 12.25 12.9995 12.5858 12.9995 13C12.9995 13.4142 12.6637 13.75 12.2495 13.75H11.9995C11.5853 13.75 11.2495 13.4142 11.2495 13ZM15.9995 8.25C15.5853 8.25 15.2495 8.58579 15.2495 9C15.2495 9.41421 15.5853 9.75 15.9995 9.75H16.2495C16.6637 9.75 16.9995 9.41421 16.9995 9C16.9995 8.58579 16.6637 8.25 16.2495 8.25H15.9995ZM15.2495 13C15.2495 12.5858 15.5853 12.25 15.9995 12.25H16.2495C16.6637 12.25 16.9995 12.5858 16.9995 13C16.9995 13.4142 16.6637 13.75 16.2495 13.75H15.9995C15.5853 13.75 15.2495 13.4142 15.2495 13Z" fill="#13193A"/>
<path d="M16.7495 3.25H15.2495V3C15.2495 2.58579 15.5853 2.25 15.9995 2.25C16.4137 2.25 16.7495 2.58579 16.7495 3V3.25Z" fill="#13193A"/>
<path d="M3.77307 20.5747C3.65162 20.4461 3.76525 20.2452 3.94206 20.249C3.97145 20.2497 4.00094 20.25 4.03053 20.25H17.1223C18.9541 20.25 20.6372 19.4803 21.8265 18.2177C21.9611 18.0748 22.2011 18.1735 22.1613 18.3658C21.7614 20.2978 20.0501 21.75 17.9995 21.75H6.49951C5.42538 21.75 4.45673 21.2984 3.77307 20.5747Z" fill="#13193A"/>
</svg>
