<svg width="24" height="24" viewBox="0 0 24 24" fill="none" xmlns="http://www.w3.org/2000/svg">
<path fill-rule="evenodd" clip-rule="evenodd" d="M11.9996 8.44861C10.0382 8.44861 8.44824 10.0386 8.44824 12C8.44824 13.9614 10.0382 15.5514 11.9996 15.5514C13.961 15.5514 15.551 13.9614 15.551 12C15.551 10.0386 13.961 8.44861 11.9996 8.44861ZM9.94824 12C9.94824 10.867 10.8667 9.94861 11.9996 9.94861C13.1326 9.94861 14.051 10.867 14.051 12C14.051 13.1329 13.1326 14.0514 11.9996 14.0514C10.8667 14.0514 9.94824 13.1329 9.94824 12Z" fill="#13193A"/>
<path fill-rule="evenodd" clip-rule="evenodd" d="M21.2576 10.2709C16.8516 3.17222 7.14835 3.17222 2.74238 10.2709C2.08587 11.3287 2.08587 12.6713 2.74238 13.7291C7.14836 20.8278 16.8516 20.8278 21.2576 13.7291C21.9141 12.6713 21.9141 11.3287 21.2576 10.2709ZM4.01685 11.062C7.8361 4.90855 16.1639 4.90855 19.9832 11.062C20.3389 11.6352 20.3389 12.3648 19.9832 12.938C16.1639 19.0914 7.83611 19.0914 4.01685 12.938C3.66105 12.3648 3.66105 11.6352 4.01685 11.062Z" fill="#13193A"/>
</svg>
