<svg width="16" height="16" viewBox="0 0 16 16" fill="none" xmlns="http://www.w3.org/2000/svg">
<g clip-path="url(#clip0_3611_939)">
<path d="M15.6747 8.1788C15.6747 7.6118 15.6235 7.06719 15.5291 6.54337H7.99731V9.6367H12.3014C12.2123 10.126 12.0249 10.5922 11.7506 11.007C11.4762 11.4219 11.1206 11.7768 10.7052 12.0503V14.0576H13.2899C14.8022 12.6645 15.6747 10.614 15.6747 8.1788Z" fill="#4285F4"/>
<path d="M7.9973 15.9945C10.1566 15.9945 11.9671 15.2787 13.2899 14.0568L10.7052 12.0503C9.98941 12.5301 9.07373 12.814 7.9973 12.814C5.91401 12.814 4.15062 11.4065 3.52283 9.51672H0.850952V11.588C1.51633 12.913 2.53707 14.0268 3.79909 14.8049C5.0611 15.5831 6.51466 15.995 7.9973 15.9945Z" fill="#34A853"/>
<path d="M3.52279 9.51674C3.36285 9.0369 3.27168 8.52508 3.27168 7.99726C3.27168 7.46944 3.36285 6.95762 3.52279 6.47778V4.40649H0.850908C0.291112 5.52067 -0.000287448 6.75036 2.1277e-07 7.99726C2.1277e-07 9.28802 0.308694 10.5084 0.850908 11.588L3.52199 9.51674H3.52279Z" fill="#FBBC05"/>
<path d="M7.9973 3.18051C9.1713 3.18051 10.2253 3.58437 11.0546 4.3769L13.3483 2.08328C11.9631 0.791728 10.1526 0 7.9973 0C4.87037 0 2.1673 1.79139 0.850952 4.40649L3.52203 6.47778C4.15062 4.58803 5.91401 3.18051 7.9973 3.18051Z" fill="#EA4335"/>
</g>
<defs>
<clipPath id="clip0_3611_939">
<rect width="15.9945" height="15.9945" fill="white"/>
</clipPath>
</defs>
</svg>

