<svg width="24" height="24" viewBox="0 0 24 24" fill="none" xmlns="http://www.w3.org/2000/svg">
<path d="M12.7501 15.5C12.7501 15.0858 12.4143 14.75 12.0001 14.75C11.5859 14.75 11.2501 15.0858 11.2501 15.5V18C11.2501 18.4142 11.5859 18.75 12.0001 18.75C12.4143 18.75 12.7501 18.4142 12.7501 18V15.5Z" fill="#13193A"/>
<path fill-rule="evenodd" clip-rule="evenodd" d="M13.5069 2.58041L14.4118 3.17314L22.4088 8.3712C22.7561 8.59694 22.8547 9.06148 22.6289 9.40877C22.4032 9.75607 21.9386 9.85461 21.5913 9.62887L20.7126 9.05767C20.7374 9.2432 20.7501 9.4315 20.7501 9.62149V18C20.7501 20.3473 18.8473 22.25 16.5001 22.25H7.50009C5.15288 22.25 3.25009 20.3473 3.25009 18V9.62149C3.25009 9.4315 3.26278 9.2432 3.2876 9.05767L2.40883 9.62887C2.06153 9.85461 1.597 9.75607 1.37126 9.40877C1.14551 9.06148 1.24405 8.59694 1.59135 8.3712L9.58834 3.17315L10.4933 2.58041C11.4084 1.98101 12.5918 1.98101 13.5069 2.58041ZM12.6813 3.83735L13.5922 4.42943L18.0069 7.32104C18.7827 7.82918 19.2501 8.6941 19.2501 9.62149V18C19.2501 19.5188 18.0189 20.75 16.5001 20.75H7.50009C5.9813 20.75 4.75009 19.5188 4.75009 18V9.62149C4.75009 8.6941 5.21751 7.82918 5.99329 7.32104L10.408 4.42943L11.3189 3.83735C11.7331 3.56809 12.2671 3.56809 12.6813 3.83735Z" fill="#13193A"/>
</svg>
