<svg width="353" height="224" viewBox="0 0 353 224" fill="none" xmlns="http://www.w3.org/2000/svg">
<path d="M352.691 21.0976V202.158C352.691 213.805 343.24 223.255 331.593 223.255H21.0976C9.4504 223.266 0 213.815 0 202.168V21.0976C0 9.4504 9.4504 0 21.0976 0H331.593C335.759 0 339.655 1.21239 342.929 3.31593C348.815 7.04635 352.691 13.616 352.691 21.0976Z" fill="url(#paint0_linear_121_74)"/>
<path d="M73.7183 53.7426V53.9107H70.6825V53.7426C71.2703 53.6226 71.3681 53.2385 71.3681 52.7094V47.8071C71.3681 46.2927 70.9281 44.8994 69.1413 44.8994C68.2601 44.8994 67.4523 45.4285 66.9878 46.1497V52.7595C66.9878 53.3366 67.11 53.5767 67.6978 53.6967V53.9138H64.6376V53.6967C65.2254 53.5767 65.3477 53.3366 65.3477 52.7595V42.3277C65.3477 41.9906 65.3477 41.6305 65.201 41.3664C64.9799 41.0293 64.6621 41.0293 64.2954 41.0293V40.8122L66.9389 40.6202L66.9878 40.6922V45.7395C67.5511 44.7303 68.7257 44.0331 69.9013 44.0331C72.0059 44.0331 73.0348 45.3064 73.0348 47.302V52.7094C73.0348 53.2385 73.1326 53.6226 73.7204 53.7426H73.7183ZM63.7309 45.0423H63.5598C63.242 43.864 63.0464 42.7347 62.5075 42.2296C61.9442 41.7255 61.0385 41.5564 59.9618 41.5324H59.7173V52.5163C59.7173 52.9254 59.7906 53.1655 59.9384 53.3095C60.0606 53.4775 60.624 53.6936 61.0396 53.6936V53.9107H56.6093V53.6936C57.026 53.6936 57.5638 53.4765 57.7105 53.3095C57.8572 53.1655 57.9061 52.9254 57.9316 52.5163V41.5334H57.6627C56.5848 41.5574 55.6803 41.7255 55.1414 42.2306C54.578 42.7347 54.4069 43.8651 54.0891 45.0434H53.8935L54.0402 41.0053C54.0646 40.9813 54.0891 40.9333 54.138 40.9573C54.2847 41.0053 54.578 41.1013 55.0191 41.1013H62.6319C63.0719 41.1013 63.3664 41.0053 63.4886 40.9573C63.5375 40.9333 63.5864 40.9813 63.5864 41.0053L63.7331 45.0434L63.7309 45.0423ZM153.369 51.8921C152.757 53.1655 151.9 54.0787 150.382 54.0787C147.347 54.0787 145.976 51.6751 145.976 49.0074C145.976 46.6277 147.273 44.1051 149.967 44.1051C150.97 44.1051 151.802 44.3932 152.39 45.0183C153.026 45.6195 153.32 46.4367 153.32 47.446V47.9031L147.274 48.1672H147.25C147.054 50.6188 148.45 51.7961 149.037 52.1813C149.624 52.5904 150.359 52.7344 151.068 52.7344C151.974 52.7344 152.708 52.4223 153.271 51.8452L153.369 51.8932V51.8921ZM147.983 45.4744C147.518 46.0516 147.395 46.8448 147.298 47.8061C148.179 47.662 151.019 47.2289 151.312 47.1819C151.778 47.1099 151.826 46.7248 151.752 46.2927C151.655 45.2114 151.067 44.5142 149.892 44.5142C149.084 44.5142 148.448 44.8263 147.983 45.4755V45.4744ZM114.817 40.9323C113.862 40.9323 113.52 41.7735 113.52 42.6387C113.52 44.2731 114.645 44.4172 116.017 44.4172V44.8493L114.181 44.9453V52.7323C114.181 53.2615 114.303 53.5735 114.867 53.6936V53.9107H111.831V53.6936C112.394 53.5495 112.516 53.2615 112.516 52.7323L112.467 45.1613C112.467 44.5602 112.101 44.6572 111.611 44.6572V44.3452C112.614 44.3452 112.468 43.9851 112.516 43.2868C112.663 41.6524 113.446 40.4261 115.258 40.4261C115.968 40.4261 116.996 40.7141 116.996 41.5553C116.996 41.9874 116.678 42.2765 116.237 42.2765C115.601 42.2765 115.551 41.9165 115.551 41.4113C115.551 41.0512 115.134 40.9302 114.817 40.9302V40.9323ZM125.514 53.6946V53.9117H123.262L123.164 52.2773C122.674 53.3585 121.426 54.0797 120.227 54.0797C118.097 54.0797 117.266 52.6854 117.266 50.7389V46.0286C117.266 45.5475 117.266 45.2354 117.217 45.0194C117.119 44.6353 116.873 44.6593 116.36 44.6823V44.4182L118.832 44.1061C118.881 44.1061 118.906 44.1302 118.906 44.1782V50.1627C118.906 51.6281 119.199 53.2156 121.01 53.2156C122.038 53.2156 122.699 52.6864 123.164 51.8212V45.8126C123.164 45.3805 123.115 45.0674 123.017 44.8754C122.944 44.7073 122.773 44.6113 122.454 44.5382C122.356 44.4902 122.258 44.5142 122.136 44.5142V44.2971L124.755 44.1051C124.804 44.1051 124.828 44.1291 124.828 44.1771V52.2522C124.828 52.7334 124.877 53.0934 124.975 53.3105C125.097 53.5276 125.268 53.6226 125.514 53.6946ZM129.576 53.9117H126.541V53.6946C126.785 53.6466 126.957 53.5746 127.08 53.4306C127.177 53.2865 127.251 53.0465 127.251 52.7334V42.3016C127.251 42.0135 127.251 41.4604 126.957 41.2203C126.713 41.0523 126.394 41.0032 126.198 41.0032V40.7861L128.818 40.5941C128.866 40.5941 128.891 40.6181 128.891 40.6661V52.7323C128.891 53.2855 129.013 53.5735 129.576 53.6936V53.9117ZM161.495 44.4172C162.279 44.4172 163.038 44.0571 163.404 43.624C163.748 43.1668 164.04 42.6147 164.09 41.7975H164.311V44.5612L166 44.3441V44.8482L164.311 44.8962V52.2752C164.311 53.1644 164.654 53.5255 165.534 53.7176V53.9096H161.961V53.7176C162.205 53.6696 162.378 53.5735 162.5 53.4295C162.616 53.2709 162.646 52.9953 162.646 52.6582V46.0266C162.646 45.2093 162.5 44.6082 161.496 44.6082V44.4161L161.495 44.4172ZM154.373 50.4978C155.034 52.1082 156.086 53.6946 158.044 53.6946C159.096 53.6946 159.831 53.0454 159.831 51.9882C159.831 51.0749 159.218 50.4978 158.435 50.0886C158.044 49.8966 157.603 49.6795 157.162 49.4875C155.815 48.9343 154.494 48.2371 154.494 46.6517C154.494 45.0664 155.791 44.1041 157.358 44.1041C157.897 44.1041 158.281 44.2043 158.582 44.2721C158.902 44.3441 159.121 44.4161 159.341 44.4161C159.634 44.4161 159.831 44.3441 159.904 44.1761H160.075L160.442 47.1318H160.271C159.88 46.2666 159.463 45.5934 158.974 45.1613C158.508 44.7042 157.971 44.4881 157.358 44.4881C156.404 44.4881 155.694 44.9693 155.694 45.9535C155.694 46.7467 156.404 47.2268 157.064 47.5399C157.481 47.732 157.896 47.924 158.361 48.1171C159.83 48.7183 161.029 49.5355 161.029 51.2179C161.029 53.0444 159.829 54.0787 158.018 54.0787C157.357 54.0787 156.818 54.0307 156.427 53.9107C156.011 53.8146 155.668 53.7426 155.399 53.7426C155.106 53.7426 154.886 53.8386 154.738 54.0067H154.592L154.2 50.4978H154.373ZM145.976 41.0763V41.2934C145.315 41.5334 145.022 42.0626 144.851 42.7118C144.777 43.0958 144.729 43.601 144.729 44.2262V54.0088H144.484L136.382 43.1449V50.1638C136.382 51.149 136.456 52.2303 137.117 53.0246C137.386 53.2886 137.753 53.5057 138.218 53.6977V53.9148H134.4V53.6977C135.183 53.3606 135.501 52.8325 135.673 52.0153C135.747 51.5342 135.796 50.934 135.796 50.1888V42.3778L135.6 42.0657C135.478 41.9217 135.379 41.7777 135.257 41.6816C135.159 41.5856 135.036 41.5136 134.939 41.4416C134.817 41.3696 134.695 41.3216 134.572 41.2976V41.0805H137.045C137.094 41.0805 137.118 41.1045 137.142 41.1285L144.167 50.2859V44.3253C144.167 43.4841 144.07 42.4989 143.482 41.8497C143.237 41.6096 142.918 41.4176 142.478 41.2965V41.0794H145.979H145.978L145.976 41.0763ZM107.987 44.3452H111.341V44.6823C110.533 44.7543 110.313 45.4035 109.848 46.4127C109.627 46.8699 109.358 47.446 109.041 48.1672L106.544 54.0077L105.834 55.5221C105.394 56.5314 104.756 57.2526 103.557 57.2526C103.117 57.2526 102.774 57.1566 102.505 56.9885C102.26 56.7965 102.113 56.5794 102.113 56.2913C102.113 56.0993 102.187 55.9313 102.335 55.7872C102.481 55.6672 102.652 55.6192 102.873 55.6192C103.069 55.6192 103.265 55.6672 103.387 55.7632C103.509 55.8833 103.656 56.0033 103.778 56.1233C103.9 56.2433 104.071 56.2913 104.268 56.2913C104.513 56.2913 104.708 56.2193 104.88 56.0513C105.051 55.9073 105.224 55.6422 105.394 55.3301L106.104 53.7677L103.46 47.59C103.02 46.5317 102.677 45.7875 102.408 45.3544C102.139 44.9213 101.747 44.6332 101.429 44.5132V44.3452H105.051V44.5132C104.635 44.6092 104.439 44.8733 104.439 45.1864C104.439 45.3784 104.488 45.5705 104.537 45.7875C104.61 45.9796 104.733 46.3407 104.954 46.8459L107.01 51.8452L108.406 48.2632C108.651 47.6391 108.846 47.0129 109.018 46.3637C109.043 46.1466 109.067 45.9545 109.067 45.8105C109.067 45.4984 108.969 45.2333 108.798 45.0413C108.627 44.8242 108.505 44.6572 107.99 44.5121V44.3441H107.988L107.987 44.3452ZM101.819 49.0804C101.819 51.7721 100.228 54.0797 97.3643 54.0797C94.5007 54.0797 92.9095 51.7001 92.9095 49.0804C92.9095 46.4607 94.5007 44.1051 97.3643 44.1051C100.228 44.1051 101.819 46.4127 101.819 49.0804ZM99.5178 45.8356C99.1011 45.0183 98.6122 44.5852 97.731 44.5132C95.5275 44.4172 94.843 47.1329 94.7208 48.8873C94.623 50.1606 94.623 51.1469 95.2108 52.3482C95.5541 53.0214 96.1897 53.6706 96.9976 53.6706C99.201 53.6706 99.8367 51.0989 100.008 49.3925C100.13 48.0221 100.154 47.0609 99.5178 45.8356ZM88.087 54.1037C87.4514 54.1037 87.0347 54.0317 86.5447 53.8157C85.3956 53.3074 85.0024 52.1572 85.0024 51.7492C85.0024 51.4851 85.0757 51.268 85.1979 51.125C85.3446 50.981 85.6635 50.885 85.8835 50.9079C86.3236 50.9559 86.5691 51.172 86.4958 51.7732C86.4469 52.3743 86.1046 52.5184 86.7892 53.1916C87.0336 53.4556 87.5236 53.6727 88.1593 53.6727C89.8153 53.6727 89.9216 51.9767 89.9216 50.5239V42.4968C89.9216 42.1127 89.8483 41.8236 89.7005 41.6555C89.5538 41.4635 89.2839 41.3435 88.8927 41.2955V41.0784H92.4907V41.2955C91.8296 41.3435 91.7073 41.8246 91.7073 42.3767V50.5969C91.7073 53.0517 90.5902 54.1058 88.0849 54.1058L88.087 54.1037ZM81.7657 51.8921C81.1535 53.1655 80.2968 54.0787 78.7789 54.0787C75.7432 54.0787 74.373 51.6751 74.373 49.0074C74.373 46.6277 75.6698 44.1051 78.3633 44.1051C79.3667 44.1051 80.199 44.3932 80.7868 45.0183C81.4224 45.6195 81.7168 46.4367 81.7168 47.446V47.9031L75.6709 48.1672H75.6464C75.4508 50.6188 76.8465 51.7961 77.4332 52.1813C78.021 52.5904 78.7555 52.7344 79.4645 52.7344C80.3701 52.7344 81.1046 52.4223 81.6679 51.8452L81.7657 51.8932V51.8921ZM76.3799 45.4744C75.9143 46.0516 75.792 46.8448 75.6943 47.8061C76.5754 47.662 79.4156 47.2289 79.709 47.1819C80.1745 47.1099 80.2224 46.7248 80.149 46.2927C80.0512 45.2114 79.4634 44.5142 78.2889 44.5142C77.4811 44.5142 76.8444 44.8263 76.3799 45.4755V45.4744Z" fill="#FA8314"/>
<path d="M49.3832 47.8906C49.3481 49.6054 48.7667 51.2523 47.9461 52.7647C46.4399 55.4877 43.6667 57.3027 40.5864 58.0426C37.1977 58.8494 33.4318 58.0771 30.7266 55.9584C29.4947 55.0504 28.2957 53.8741 27.508 52.5966C26.5833 51.1177 26.1719 49.4373 26.0348 47.7225C25.7606 44.6301 27.0967 41.2015 29.2534 38.9158C31.5121 36.4621 34.7307 35.6887 37.9832 35.386C38.1884 35.3516 38.5657 35.3192 38.6338 35.4528C38.7018 35.6209 38.5987 35.8233 38.4286 36.0916C38.2585 36.3598 37.8812 36.6635 37.6761 36.6635C36.2719 36.6635 35.5534 36.8994 34.2183 37.3022C31.6163 38.109 29.5276 39.8228 28.2276 42.1763C26.8235 44.6645 26.3792 47.5879 27.44 50.3454C28.4668 53.035 30.6235 55.3875 33.3967 56.3967C36.273 57.4394 39.4224 57.3611 42.2286 56.1849C44.8987 55.042 46.8162 53.2041 47.911 50.5812C48.5275 49.0689 48.62 47.4888 48.4149 45.9086C48.2437 44.7657 47.911 43.5895 47.2616 42.5813C45.7894 40.2277 42.708 39.3886 40.039 39.0525C37.2317 38.7165 34.3565 39.8593 32.2678 41.6409C30.2483 43.3557 29.2895 45.8094 29.7009 48.3968C30.0782 50.9173 31.9256 52.7667 34.2545 53.7416C35.2813 54.1789 36.4462 54.4805 37.6091 54.5149C38.807 54.5494 40.1761 54.2123 41.272 53.7082C43.4967 52.6655 45.3111 50.8171 45.7905 48.3978C45.9616 47.423 45.7905 46.516 45.5503 45.6414C45.208 44.3973 44.5575 43.1532 43.2224 42.5155C41.9214 41.9102 40.3812 41.8089 38.9431 41.8089C37.608 41.8089 36.1699 41.9436 35.04 42.6825C32.8833 44.0612 31.9245 46.7498 32.7802 49.1702C33.6358 51.6239 37.2987 51.8932 39.4905 51.3891C41.5101 50.9183 42.6399 49.3716 42.742 47.3886C42.7771 46.3459 42.1946 45.4389 41.2018 45.0016C40.7915 44.8336 40.4822 44.6311 39.9699 44.8336C39.4905 44.9682 38.8059 45.1029 38.3606 44.9348C37.8812 44.7668 37.4358 44.7668 37.0936 44.868C36.5462 44.9693 36.1763 45.2031 36.0402 45.3043C36.0051 45.3387 35.9307 45.4389 35.9987 45.5068C36.273 45.8094 36.1359 46.4816 36.1018 46.9857C36.0338 47.4898 35.8616 48.0607 35.7936 48.2632C35.6905 48.5325 35.6076 48.5105 35.8478 48.7454C36.3272 49.0814 36.4101 48.9353 36.9586 48.7339C37.438 48.5659 37.9513 48.4312 38.4307 48.5325C39.0472 48.6671 39.3895 49.07 39.8678 48.3978C39.9029 48.331 39.9358 48.2298 39.8327 48.1285C39.7647 48.0273 39.6956 47.9271 39.6956 47.8927C39.5585 47.6568 39.4905 47.3207 39.6276 47.0859C39.6956 46.9513 39.7987 46.683 39.9699 46.6152C40.2441 46.5484 40.4492 47.1527 40.4833 47.3218C40.5513 47.7925 40.6884 48.4646 40.6204 48.9687C40.5523 49.406 40.3461 49.9435 39.6956 50.0114C39.4554 50.0458 39.1822 49.9101 38.9431 49.8433C38.6008 49.7087 38.2235 49.6753 37.8812 49.7765C37.4018 49.8778 36.8193 50.1126 36.307 50.0458C35.7596 49.9446 35.3142 49.4405 35.0751 49.0032C34.8348 48.4991 34.9379 47.9605 35.1101 47.423C35.2472 47.1203 35.3844 46.8511 35.4184 46.515C35.4864 46.2123 35.3833 46.0109 35.2813 45.7082C35.1101 45.2041 35.1441 44.7 35.6235 44.3639C36.206 43.9266 36.8905 43.7586 37.6091 43.792C38.2936 43.8264 38.841 43.9934 39.4915 43.792C40.5183 43.4893 41.4771 43.8932 42.1956 44.5988C43.1204 45.5402 43.4627 46.9179 43.3936 48.1953C43.3255 49.2036 43.0513 50.2128 42.4348 51.0196C41.6822 52.0278 40.5183 52.5319 39.2853 52.6999C37.7792 52.9014 36.0338 52.8346 34.6297 52.1958C33.3977 51.6583 32.541 50.6835 32.0956 49.4394C31.6854 48.1953 31.5823 46.6152 31.9245 45.3387C32.2668 43.9944 33.1915 42.7504 34.2864 41.9102C35.4843 41.0022 36.9905 40.6661 38.4977 40.6661C40.209 40.6661 41.9554 40.8007 43.4616 41.6409C45.8585 42.9518 46.7482 45.8762 46.543 48.3968C46.3028 51.221 44.3863 53.4723 41.8523 54.7164C40.5853 55.3551 39.0791 55.7914 37.641 55.7246C36.3059 55.6578 34.9369 55.2539 33.7379 54.6496C31.8214 53.7082 30.3493 52.1958 29.5265 50.3798C29.1843 49.6064 29.0131 48.6994 28.91 47.8248C28.5678 44.8336 29.6977 42.0427 32.1616 40.1609C33.3935 39.2529 34.7285 38.682 36.2358 38.3126C38.0502 37.8418 39.6244 37.7406 41.3017 38.1111C42.8419 38.4472 44.4512 38.9179 45.7862 39.8259C46.9842 40.6327 47.8058 41.8434 48.3883 43.1532C49.0388 44.6322 49.4151 46.2791 49.3811 47.8927H49.3789L49.3832 47.8906Z" fill="#FA8314"/>
<path d="M309.407 43.4471C309.417 43.3796 309.458 43.3241 309.531 43.3241C309.593 43.3241 309.666 43.3796 309.656 43.4471C309.644 43.5459 309.61 43.6424 309.558 43.7315C309.348 44.098 308.863 44.1944 308.487 44.0329C308.265 43.9365 308.079 43.7171 308.028 43.4784C307.996 43.3241 308.235 43.259 308.27 43.4133C308.272 43.435 308.279 43.4543 308.287 43.476C308.289 43.4857 308.294 43.4929 308.296 43.5025L308.299 43.5049C308.301 43.5081 308.301 43.5106 308.301 43.5121C308.301 43.5146 308.304 43.5146 308.304 43.517C308.316 43.5435 308.331 43.57 308.345 43.5941C308.379 43.6496 308.399 43.6737 308.455 43.7219C308.494 43.7581 308.56 43.799 308.619 43.8207C308.777 43.8786 308.977 43.8786 309.124 43.8111C309.246 43.7532 309.307 43.6785 309.366 43.5628L309.368 43.5604C309.368 43.5604 309.37 43.558 309.373 43.5532V43.5507L309.375 43.5483C309.375 43.5387 309.38 43.529 309.385 43.5194C309.39 43.5025 309.395 43.4832 309.4 43.4663C309.405 43.4495 309.417 43.3748 309.407 43.4471Z" fill="#FA8314"/>
<path d="M310.227 46.1063C309.976 46.1063 309.773 45.9641 309.773 45.7881C309.773 45.6121 309.976 45.4699 310.227 45.4699C310.479 45.4699 310.681 45.6121 310.681 45.7881C310.681 45.9641 310.479 46.1063 310.227 46.1063Z" fill="#FA8314"/>
<path d="M311.389 43.5049V43.5074C311.391 43.5098 311.391 43.5146 311.394 43.517C311.409 43.5435 311.421 43.57 311.438 43.5941C311.472 43.6496 311.489 43.6737 311.545 43.7219C311.584 43.7581 311.65 43.799 311.711 43.8207C311.867 43.8786 312.068 43.8786 312.216 43.8111C312.336 43.7532 312.4 43.6785 312.458 43.5628L312.461 43.5604V43.558L312.463 43.5555V43.5507L312.465 43.5483C312.468 43.5387 312.473 43.529 312.475 43.5194C312.483 43.5025 312.487 43.4832 312.492 43.4663C312.495 43.4567 312.5 43.4278 312.502 43.4182C312.502 43.4205 312.502 43.4278 312.5 43.4471C312.507 43.3796 312.548 43.3241 312.624 43.3241C312.683 43.3241 312.756 43.3796 312.746 43.4471C312.734 43.5459 312.7 43.6424 312.648 43.7315C312.439 44.098 311.953 44.1944 311.577 44.0329C311.357 43.9365 311.169 43.7171 311.121 43.4784C311.089 43.3241 311.328 43.259 311.36 43.4133C311.365 43.435 311.372 43.4543 311.379 43.476C311.382 43.4857 311.387 43.4953 311.389 43.5049Z" fill="#FA8314"/>
<path d="M309.656 43.4471C309.644 43.5459 309.61 43.6424 309.558 43.7315C309.348 44.098 308.863 44.1944 308.487 44.0329C308.265 43.9365 308.079 43.7171 308.028 43.4784C307.996 43.3241 308.235 43.259 308.27 43.4133C308.272 43.435 308.279 43.4543 308.287 43.476C308.289 43.4857 308.294 43.4929 308.296 43.5025L308.299 43.5049C308.301 43.5081 308.301 43.5106 308.301 43.5121C308.301 43.5146 308.304 43.5146 308.304 43.517C308.316 43.5435 308.331 43.57 308.345 43.5941C308.379 43.6496 308.399 43.6737 308.455 43.7219C308.494 43.7581 308.56 43.799 308.619 43.8207C308.777 43.8786 308.977 43.8786 309.124 43.8111C309.246 43.7532 309.307 43.6785 309.366 43.5628L309.368 43.5604C309.368 43.5604 309.37 43.558 309.373 43.5532V43.5507L309.375 43.5483C309.375 43.5387 309.38 43.529 309.385 43.5194C309.39 43.5025 309.395 43.4832 309.4 43.4663C309.405 43.4495 309.417 43.3748 309.407 43.4471C309.417 43.3796 309.458 43.3241 309.531 43.3241C309.593 43.3241 309.666 43.3796 309.656 43.4471Z" fill="#FA8314"/>
<path d="M310.681 45.7881C310.681 45.9641 310.479 46.1063 310.227 46.1063C309.976 46.1063 309.773 45.9641 309.773 45.7881C309.773 45.6121 309.976 45.4699 310.227 45.4699C310.479 45.4699 310.681 45.6121 310.681 45.7881Z" fill="#FA8314"/>
<path d="M312.746 43.4471C312.734 43.5459 312.7 43.6424 312.648 43.7315C312.439 44.098 311.953 44.1944 311.577 44.0329C311.357 43.9365 311.169 43.7171 311.121 43.4784C311.089 43.3241 311.328 43.259 311.36 43.4133C311.365 43.435 311.372 43.4543 311.379 43.476C311.382 43.4857 311.387 43.4953 311.389 43.5049V43.5074C311.391 43.5098 311.391 43.5146 311.394 43.517C311.409 43.5435 311.421 43.57 311.438 43.5941C311.472 43.6496 311.489 43.6737 311.545 43.7219C311.584 43.7581 311.65 43.799 311.711 43.8207C311.867 43.8786 312.068 43.8786 312.216 43.8111C312.336 43.7532 312.4 43.6785 312.458 43.5628L312.461 43.5604V43.558L312.463 43.5555V43.5507L312.465 43.5483C312.468 43.5387 312.473 43.529 312.475 43.5194C312.483 43.5025 312.487 43.4832 312.492 43.4663C312.495 43.4567 312.5 43.4278 312.502 43.4182C312.502 43.4205 312.502 43.4278 312.5 43.4471C312.507 43.3796 312.548 43.3241 312.624 43.3241C312.683 43.3241 312.756 43.3796 312.746 43.4471Z" fill="#FA8314"/>
<path d="M306.192 54.5336C306.192 54.7414 303.616 55.5606 303.41 55.5606C303.204 55.5606 302.825 54.2368 302.602 53.4822C302.248 52.2837 301.796 49.5104 302 49.5104C302.205 49.5104 303.14 51.9681 304.261 52.9679C305.383 53.9678 306.192 54.3257 306.192 54.5336Z" fill="#FA8314"/>
<path d="M314.254 45.899C314.25 46.1497 314.215 46.5764 314.071 47.1309C313.847 47.9747 313.315 49.2934 312.033 50.7928C311.667 51.2196 310.925 52.0754 310.642 52.0754C310.359 52.0754 306.814 50.4529 306.463 45.9063C307.196 47.3623 308.687 48.2857 310.356 48.2857C312.021 48.2857 313.522 47.3575 314.254 45.899Z" fill="#FA8314"/>
<path d="M317.184 51.267C317.389 51.267 316.634 56.8407 315.624 58.5355C314.418 60.5581 312.507 61.6237 309.776 61.79C309.761 61.7924 308.306 62.0624 306.705 60.9293C306.869 60.6593 307.781 59.2683 309.607 58.3571L309.781 58.2727C311.177 57.5758 313.562 56.3848 315.312 54.4621C316.13 53.5646 316.978 51.267 317.184 51.267Z" fill="#FA8314"/>
<path d="M317.154 49.399C317.054 50.1109 315.734 53.6926 312.255 55.8936C311.511 56.3637 309.626 57.3675 309.011 57.7412C306.66 59.1732 306.563 59.9796 306.082 60.0623C305.6 60.1449 303.461 56.7109 303.703 56.4722C303.944 56.2335 304.981 56.3454 306.265 55.9063C307.868 55.358 309.989 54.2858 312.05 52.1907C315.836 48.3455 314.811 45.1103 314.652 44.6812L314.66 44.6378C315.167 44.416 315.416 43.6228 315.204 42.8779C315.126 42.6079 315.011 42.4536 314.86 42.4199C314.713 42.3862 314.577 42.4729 314.469 42.5718C314.091 41.5086 313.295 40.6191 312.268 40.12C312.268 40.12 310.776 39.6817 309.887 40.7757C309.587 41.2024 309.373 41.7184 309.583 42.0028C309.839 42.3451 310.195 42.3596 310.444 42.2584C310.637 42.1812 310.761 41.9641 310.603 41.8276C310.445 41.691 310.139 41.9493 309.996 41.842C309.853 41.7347 309.882 41.5008 310.001 41.3691C310.119 41.2375 310.392 41.1774 310.661 41.3269C310.868 41.4402 311.091 41.7569 310.988 42.0582C310.766 42.642 310.256 42.6851 309.841 42.5887C309.422 42.4922 308.88 42.0872 309.005 41.2531C309.217 39.9577 310.222 39.6788 310.222 39.6788L309.942 39.7054C308.218 39.8669 306.737 41.053 306.212 42.673C306.114 42.5597 305.929 42.3837 305.738 42.4151C305.58 42.4416 305.458 42.5959 305.377 42.8779C305.233 43.389 305.299 43.9362 305.551 44.3099C305.697 44.5269 306.06 44.6979 306.07 44.6979C306.07 44.6979 305.682 45.9178 305.954 47.4912C306.988 51.7031 309.91 52.401 309.91 52.5861C309.91 52.7711 308.082 53.6805 306.959 54.194C305.865 53.4491 303.055 51.3373 302.143 47.4656C302.282 42.1909 304.85 36.7594 309.739 36.5111C312.595 36.3665 316.387 38.7957 317.031 43.716C317.336 46.0545 317.255 48.6872 317.154 49.399Z" fill="#FA8314"/>
<path d="M303.6 56.3586L303.588 56.361L303.605 56.4189H303.62C303.613 56.3996 303.605 56.3803 303.6 56.3586Z" fill="#FA8314"/>
<path d="M306.988 36.0409C306.988 36.1373 306.856 36.2217 306.62 36.376C305.895 36.8412 302.977 38.3621 301.892 42.3282C300.99 45.7876 300.471 48.7456 301.103 52.6052C301.67 56.055 303.398 59.2864 304.44 60.3269C305.482 61.3673 306.009 61.7974 306.009 62.0771C306.009 62.3567 304.911 62.3519 303.403 62.3495C302.871 62.3495 302.265 62.3471 301.584 62.3567C299.373 62.3567 298.072 62.0216 297.362 61.2671C296.436 60.2835 296.563 58.5863 296.739 56.2382C296.822 55.1027 296.917 53.8178 296.917 52.3714C296.986 50.3415 296.829 47.586 296.681 44.9197C296.554 42.7187 296.436 40.6406 296.436 38.9579C296.436 38.0346 296.676 37.3547 297.166 36.8774C297.955 36.1132 299.285 36.0047 300.586 36.0047C300.845 36.0047 301.103 36.0095 301.355 36.0144C301.87 36.0216 302.353 36.0288 302.787 36.0023C303.207 35.9758 303.615 35.9444 304.001 35.9155C305.443 35.807 306.688 35.7154 306.944 35.9493C306.974 35.9758 306.988 36.0047 306.988 36.0409Z" fill="#FA8314"/>
<path d="M322.705 54.729C322.961 57.3471 323.251 60.3147 322.029 61.643C321.589 62.1228 320.991 62.3542 320.203 62.3542H319.966C317.04 62.3542 313.771 62.3494 313.657 61.8986C313.647 61.8552 313.669 61.7298 314.098 61.5032C315.019 61.0187 318.03 59.1286 318.135 55.1726C318.155 54.4107 318.196 53.5887 318.243 52.7208C318.423 49.2662 318.65 44.9678 317.459 41.5976C316.11 37.3522 313.779 36.5952 312.783 36.2698C312.514 36.183 312.302 36.1155 312.302 36.0384C312.302 36.0046 312.314 35.9781 312.341 35.954C312.927 35.4051 316.254 35.9733 316.649 35.9998C317.081 36.0263 317.567 36.0191 318.082 36.0119C319.602 35.9853 321.323 35.9564 322.27 36.8749C322.761 37.3522 323 38.0321 323 38.9554C323 40.6381 322.883 42.7162 322.756 44.9172C322.607 47.5835 322.451 50.339 322.519 52.3688C322.541 53.0776 322.622 53.8804 322.705 54.729Z" fill="#FA8314"/>
<path d="M310.681 45.7881C310.681 45.9641 310.479 46.1063 310.227 46.1063C309.976 46.1063 309.773 45.9641 309.773 45.7881C309.773 45.6121 309.976 45.4699 310.227 45.4699C310.479 45.4699 310.681 45.6121 310.681 45.7881Z" fill="#FA8314"/>
<path d="M312.746 43.4471C312.734 43.5459 312.7 43.6424 312.648 43.7315C312.439 44.098 311.953 44.1944 311.577 44.0329C311.357 43.9365 311.169 43.7171 311.121 43.4784C311.089 43.3241 311.328 43.259 311.36 43.4133C311.365 43.435 311.372 43.4543 311.379 43.476C311.382 43.4857 311.387 43.4953 311.389 43.5049V43.5074C311.391 43.5098 311.391 43.5146 311.394 43.517C311.409 43.5435 311.421 43.57 311.438 43.5941C311.472 43.6496 311.489 43.6737 311.545 43.7219C311.584 43.7581 311.65 43.799 311.711 43.8207C311.867 43.8786 312.068 43.8786 312.216 43.8111C312.336 43.7532 312.4 43.6785 312.458 43.5628L312.461 43.5604V43.558L312.463 43.5555V43.5532C312.465 43.5507 312.465 43.5483 312.465 43.5483C312.468 43.5387 312.473 43.529 312.475 43.5194C312.483 43.5025 312.487 43.4832 312.492 43.4663C312.495 43.4567 312.5 43.4278 312.502 43.4182C312.502 43.4205 312.502 43.4278 312.5 43.4471C312.507 43.3796 312.548 43.3241 312.624 43.3241C312.683 43.3241 312.756 43.3796 312.746 43.4471Z" fill="#FA8314"/>
<path d="M309.656 43.4471C309.644 43.5459 309.61 43.6424 309.558 43.7315C309.348 44.098 308.863 44.1944 308.487 44.0329C308.265 43.9365 308.079 43.7171 308.028 43.4784C307.996 43.3241 308.235 43.259 308.27 43.4133C308.272 43.435 308.279 43.4543 308.287 43.476C308.289 43.4857 308.294 43.4929 308.296 43.5025L308.299 43.5049C308.301 43.5081 308.301 43.5106 308.301 43.5121C308.301 43.5146 308.304 43.5146 308.304 43.517C308.316 43.5435 308.331 43.57 308.345 43.5941C308.379 43.6496 308.399 43.6737 308.455 43.7219C308.494 43.7581 308.56 43.799 308.619 43.8207C308.777 43.8786 308.977 43.8786 309.124 43.8111C309.246 43.7532 309.307 43.6785 309.366 43.5628L309.368 43.5604C309.368 43.5604 309.37 43.558 309.373 43.5532V43.5507L309.375 43.5483C309.375 43.5387 309.38 43.529 309.385 43.5194C309.39 43.5025 309.395 43.4832 309.4 43.4663C309.405 43.4495 309.417 43.3748 309.407 43.4471C309.417 43.3796 309.458 43.3241 309.531 43.3241C309.593 43.3241 309.666 43.3796 309.656 43.4471Z" fill="#FA8314"/>
<path d="M300.513 100.626C301.967 99.2772 304.73 98.3989 304.596 98.1707C304.462 97.9425 302.48 98.1495 301.51 98.1045C299.553 98.0137 298.488 99.2935 297.998 101.323C297.755 102.327 297.364 104.811 297.653 104.811C297.941 104.811 299.209 101.871 300.513 100.626Z" fill="#FA8314"/>
<path d="M297.459 116.203C296.511 115.986 297.392 123.763 300.677 123.913C303.856 124.058 306.633 124.659 306.634 124.033C306.634 123.34 303.698 123.032 301.419 121.182C299.135 119.328 297.934 116.311 297.459 116.203Z" fill="#FA8314"/>
<path d="M322.861 122.295C322.927 122.148 323.16 121.882 322.738 121.843C322.316 121.805 317.173 124.099 317.172 124.307C317.172 124.514 322.038 124.103 322.861 122.295Z" fill="#FA8314"/>
<path d="M315.464 120.672C310.408 121.177 307.447 122.048 302.649 117.958C293.315 109.998 302.753 98.9 310.633 99.3404C318.513 99.7808 321.717 104.058 322.155 107.141C322.594 110.224 321.076 106.717 319.849 104.625C318.622 102.533 313.079 99.6046 309.486 100.574C307.99 100.977 304.91 101.597 304.95 102.054C304.99 102.511 307.433 101.371 311.292 102.204C314.745 102.883 318.375 104.625 320.141 107.583C323.503 114.083 316.267 121.9 307.766 117.276C300.206 113.378 301.006 109.58 302.321 106.915C302.978 105.583 304.087 104.587 304.415 104.766C304.744 104.945 303.814 105.59 302.895 107.884C300.953 114.219 309.778 117.371 309.971 116.931C310.102 116.633 307.326 115.499 306.636 113.022C306.089 111.013 304.921 109.62 306.165 108.315C307.409 107.01 307.815 105.532 309.183 105.094C311.04 104.56 312.936 104.798 314.458 105.64C315.696 106.272 316.911 107.489 317.634 109.24C318.358 110.99 317.45 114.436 316.254 114.954C315.487 115.262 317.221 111.771 316.742 111.724C316.263 111.678 314.998 114.3 311.445 113.125C307.234 111.798 309.481 106.506 312.461 107.123C315.441 107.739 314.963 109.963 314.174 110.553C313.386 111.143 313.035 110.042 313.429 109.47C313.824 108.897 313.344 108.338 313.046 108.116C312.748 107.893 311.195 107.637 310.633 109.47C309.986 113.158 315.926 112.493 316.238 110.429C316.486 108.892 315.601 107.851 314.739 107.027C313.349 105.698 310.183 104.857 308.867 106.818C307.551 108.779 306.862 108.678 307.015 110.616C307.169 112.554 310.693 117.834 315.707 116.994C318.921 116.02 320.656 112.579 319.772 110.053C318.888 107.527 318.387 105.655 315.268 104.384C311.784 103.118 311.209 103.232 309.65 102.874C306.614 102.446 304.278 103.082 302.159 104.44C300.66 105.445 300.796 106.529 300.152 109.073C299.507 111.617 301.072 116.902 305.542 118.718C311.267 121.107 313.93 119.893 317.907 119.346C321.884 118.798 323.551 115.476 323.671 114.338C323.792 113.2 323.642 111.319 323.528 109.822C322.409 102.83 323.877 100.606 321.84 99.4452C320.936 98.7329 319.484 98.052 316.855 98.4153C314.226 98.7787 310.781 97.6582 308.388 97.819C303.698 98.4557 303.942 99.6486 301.259 101.662C298.866 103.49 297.945 106.488 297.62 107.983C297.146 109.492 296.988 112.789 297.583 113.982C298.125 115.109 299.47 119.72 303.57 121.317C307.669 122.913 308.31 124.106 313.344 124.106C315.891 124.106 322.377 121.724 323.493 120.32C323.716 119.973 324.034 118.609 323.363 118.242C322.691 117.876 321.968 120.257 315.464 120.672Z" fill="#FA8314"/>
<path d="M310.155 171.786C309.478 171.702 306.692 171.634 306.799 174.886C306.972 176.707 308.784 177.179 308.795 177.179C310.159 177.519 311.739 176.991 312.257 176.027C313.127 174.405 312.66 172.271 310.155 171.786ZM311.291 176.354C311.168 176.426 310.989 176.346 310.67 176.22C310.351 176.094 309.834 175.891 309.506 175.293C309.179 174.695 308.851 174.452 308.425 174.221C308 173.989 307.86 173.283 308.103 172.804C308.36 172.297 308.496 172.618 308.401 172.752C308.401 172.752 308.142 173.367 308.556 173.774C308.97 174.182 309.539 174.223 309.716 174.749C309.892 175.28 310.246 175.685 310.774 175.847C311.302 176.012 311.414 176.283 311.291 176.354Z" fill="#FA8314"/>
<path d="M319.044 176.774C319.044 177.818 318.477 178.269 318.07 178.561C316.576 179.638 314.561 178.3 312.448 177.704C311.723 177.5 311.312 177.564 310.995 177.621C310.156 177.767 310.185 177.534 310.465 177.488C312.051 177.225 313.443 176.383 313.026 173.816C317.203 172.702 319.044 175.731 319.044 176.774Z" fill="#FA8314"/>
<path d="M316.571 160.185C316.382 159.778 315.64 159.356 314.724 159.356C311.481 159.356 310.957 159.676 310.054 162.204C309.282 164.357 308.05 164.29 306.181 164.186C305.739 164.162 305.282 164.136 304.778 164.136C303.633 164.136 301.545 164.325 300.437 165.585C299.849 166.255 299.618 167.143 299.754 168.224C299.989 170.123 299.418 171.152 298.866 172.144C298.469 172.859 298.095 173.535 298.026 174.507C298.021 174.54 297.713 177.503 299.36 179.054C300.929 180.498 299.982 182.309 299.222 183.763C298.797 184.575 298.431 185.277 298.659 185.658C298.81 185.907 299.217 186.028 299.909 186.028C300.349 186.028 300.765 186.031 301.153 186.031C302.569 186.037 303.905 186.043 304.028 185.918C304.155 185.768 304.151 184.055 303.976 183.717C303.929 183.624 303.769 183.509 303.567 183.364C303.127 183.046 302.461 182.563 302.049 181.67C301.584 180.654 301.642 178.213 301.694 176.058C301.709 175.393 301.724 174.763 301.724 174.195C301.724 172.523 301.922 169.543 303.254 168.362C304.187 167.537 305.125 167.355 306.31 167.123C306.545 167.078 306.791 167.03 307.05 166.974L307.519 166.874C308.703 166.625 309.241 166.512 310.481 165.856C312.229 164.955 312.116 162.904 312.116 162.882C312.116 162.815 312.155 161.377 312.892 161.377C313.388 161.377 313.52 161.647 313.597 161.808C313.61 161.834 313.627 161.866 313.64 161.886C313.66 161.86 313.688 161.806 313.711 161.76C313.845 161.507 314.091 161.034 314.793 161.119C315.033 161.145 315.222 161.19 315.377 161.227C315.806 161.327 315.938 161.359 316.222 160.861C316.278 160.788 316.425 160.647 316.537 160.619C316.634 160.489 316.645 160.343 316.571 160.185ZM324.539 179.794C324.44 179.186 324.343 178.612 324.296 178.127C324.147 176.602 324.304 175.049 324.468 173.407C324.593 172.164 324.722 170.877 324.722 169.538C324.722 167.728 322.27 167.461 320.108 167.229C318.705 167.078 317.496 166.948 317.235 166.382C317.011 165.912 317.211 165.57 317.442 165.176C317.707 164.721 318.009 164.208 317.852 163.291C317.8 163.003 317.791 162.694 317.785 162.393C317.768 161.552 317.752 160.883 316.897 160.837C317.067 161.364 317.233 162.665 316.802 163.978C316.145 165.969 314.845 166.17 314.698 166.185C314.623 166.194 314.541 166.2 314.461 166.207C314.3 166.22 314.032 166.239 313.992 166.287C313.996 166.287 314.015 166.335 314.17 166.443C314.767 166.891 316.373 167.292 317.925 167.68C319.112 167.977 320.339 168.284 321.184 168.622C323.028 169.411 323.145 171.62 323.27 173.959C323.315 174.782 323.36 175.634 323.481 176.448C323.953 179.244 323.498 180.535 323.035 181.124C322.776 181.452 322.494 181.581 322.313 181.592C321.955 181.644 321.763 181.603 321.729 181.471C321.701 181.369 321.798 181.259 321.979 181.187C323.408 180.427 323.009 177.704 322.623 175.07C322.44 173.823 322.253 172.53 322.253 171.431C322.253 169.294 319.705 168.711 317.242 168.148C315.813 167.823 314.464 167.513 313.629 166.915C313.06 166.527 313.071 166.203 313.129 166.044C313.229 165.769 313.595 165.616 314.041 165.661C315.317 165.798 315.961 164.498 316.233 163.71C316.597 162.646 316.591 161.66 316.448 161.572C316.321 161.494 316.224 161.539 316.037 161.647C315.776 161.795 315.418 161.996 314.783 161.723C314.298 161.574 314.093 161.97 313.892 162.464C313.791 162.715 313.714 162.923 313.552 162.91C313.315 162.906 313.246 162.609 313.185 162.347C313.155 162.211 313.117 162.042 313.065 162.005C313.035 161.981 313.004 161.979 312.972 161.994C312.929 162.018 312.711 162.176 312.711 163.116C312.711 164.632 312.14 165.514 311.66 165.988C311.136 166.502 310.619 166.653 310.595 166.66C310.575 166.668 307.931 167.637 306.618 167.818C302.892 168.477 302.58 171.26 302.58 174.054C302.58 174.516 302.543 175.066 302.506 175.649C302.325 178.369 302.082 182.097 304.978 183.288C306.453 183.882 309.679 184.776 312.401 184.363L312.414 184.361L312.425 184.363C316.423 185.017 320.138 183.925 321.36 183.568C321.468 183.535 321.559 183.509 321.632 183.49C322.518 183.241 322.923 182.885 322.927 182.66C322.927 182.535 322.789 182.474 322.707 182.448C322.507 182.387 322.136 182.418 321.705 182.454C320.985 182.515 319.998 182.597 319.063 182.314C317.578 181.861 316.216 182.002 315.315 182.095C314.821 182.127 314.323 181.848 313.696 181.495C312.593 180.873 311.073 180.018 308.362 180.046L308.237 180.044C307.981 180.039 307.739 180.035 307.655 179.894C307.636 179.864 307.634 179.827 307.651 179.794C307.687 179.721 307.795 179.703 308.093 179.678C308.181 179.671 308.31 179.66 308.392 179.643C308.315 179.593 308.175 179.513 308.039 179.437C307.491 179.127 306.578 178.612 306.187 178.064C305.871 177.62 305.795 177.189 305.985 176.909C306.164 176.647 306.545 176.556 307.075 176.645C306.502 175.997 306.177 174.804 306.366 173.918C306.509 173.225 306.789 172.647 307.138 172.328C307.196 172.144 307.606 170.903 307.955 170.701C308.032 170.656 308.082 170.68 308.106 170.699C308.194 170.773 308.151 170.944 308.011 171.382C307.976 171.483 307.935 171.611 307.914 171.698C307.918 171.696 307.922 171.691 307.927 171.689C308.179 171.546 308.769 171.21 310.106 171.299C311.366 171.416 312.319 172.034 312.767 173.082C313.618 172.896 317.067 172.311 318.845 174.841C318.957 174.999 319.071 175.257 319.181 175.504C319.268 175.696 319.393 175.978 319.462 176.054C319.502 175.963 319.513 175.629 319.373 174.631C319.184 173.292 318.589 172.22 317.608 171.447C317.487 171.39 317.289 171.146 317.33 170.994C317.345 170.94 317.399 170.853 317.591 170.892C317.893 170.899 319.229 171.802 319.781 173.448C320.134 174.464 320.192 175.725 319.931 176.818C319.636 178.068 318.966 178.941 318.046 179.27C316.442 179.708 314.698 179.01 313.425 178.499C313.067 178.356 312.759 178.233 312.509 178.157C311.754 177.927 311.194 178.012 310.653 178.092C310.397 178.131 310.129 178.17 309.847 178.176C309.291 178.192 308.647 177.912 308.078 177.672C307.735 177.527 307.409 177.39 307.14 177.325C306.776 177.239 306.597 177.301 306.549 177.388C306.502 177.477 306.55 177.665 306.823 177.927C307.58 178.653 308.78 179.257 310.112 179.587C310.319 179.636 310.532 179.684 310.754 179.736C311.925 180 313.252 180.299 314.916 181.239C314.918 181.239 315.375 181.473 315.843 181.345C316.244 181.235 317.224 181.135 319.259 181.703C320.237 181.973 321.054 181.943 321.712 181.919C322.302 181.9 322.768 181.883 323.158 182.071C323.535 182.253 323.608 182.502 323.602 182.678C323.587 183.111 323.091 183.576 322.306 183.895C322.261 183.975 322.384 184.365 322.466 184.627C322.617 185.11 322.785 185.649 322.699 186.024C323.414 186.005 323.938 185.784 324.304 185.35C325.272 184.202 324.867 181.759 324.539 179.794ZM314.936 170.201C314.395 170.374 314.03 170.782 313.707 171.139C313.429 171.449 313.19 171.717 312.91 171.717C312.612 171.717 312.466 171.46 312.295 171.161C312.119 170.849 311.899 170.461 311.431 170.218C311.037 170.015 310.8 169.794 310.797 169.627C310.797 169.566 310.828 169.514 310.879 169.486C311.032 169.402 311.371 169.514 311.785 169.785C312.395 170.184 312.632 170.563 312.774 170.79C312.856 170.922 312.899 170.99 312.951 170.994H312.953C312.996 170.994 313.121 170.851 313.214 170.745C313.5 170.418 313.979 169.87 314.813 169.696C315.621 169.54 315.662 169.699 315.675 169.751C315.69 169.816 315.724 169.948 314.936 170.201ZM321.533 184.079C321.171 183.921 316.97 185.695 312.267 184.984C310.42 185.32 308.573 185.041 306.752 184.558C306.127 184.391 305.181 183.737 304.883 184.003C304.588 184.267 304.739 185.963 304.888 186.065C305.039 186.169 305.815 185.935 306.347 186C311.472 186.752 311.942 185.927 317.283 185.924C318.522 185.922 321.593 186.314 321.906 186.085C322.218 185.855 321.897 184.239 321.533 184.079Z" fill="#FA8314"/>
<defs>
<linearGradient id="paint0_linear_121_74" x1="112.393" y1="275.961" x2="198.19" y2="55.51" gradientUnits="userSpaceOnUse">
<stop stop-color="#FF8C00"/>
<stop offset="0.403846" stop-color="#FF9D00"/>
<stop offset="0.802885" stop-color="#4039A1"/>
<stop offset="1" stop-color="#4039A1"/>
</linearGradient>
</defs>
</svg>
