<svg width="24" height="24" viewBox="0 0 24 24" fill="none" xmlns="http://www.w3.org/2000/svg">
<path fill-rule="evenodd" clip-rule="evenodd" d="M11.9997 1.875C8.31952 1.875 5.24972 4.69347 5.24972 8.26653V9.32223C5.24972 10.3497 4.9456 11.3541 4.37569 12.209C4.36564 12.224 4.35614 12.2395 4.34721 12.2552L3.96857 12.9234C3.47845 13.7883 3.31876 14.8001 3.51445 15.7729C3.52909 15.8457 3.55285 15.9472 3.59102 16.0698C4.05436 17.5582 5.50067 18.3236 6.68961 18.6817C6.99433 18.7734 7.31516 18.8559 7.64884 18.9291C7.64974 18.9312 7.65064 18.9332 7.65156 18.9352C8.57899 20.9768 10.2292 22.125 12 22.125C13.7708 22.125 15.421 20.9768 16.3483 18.9352C16.3493 18.9331 16.3502 18.9311 16.3511 18.929C16.6866 18.8554 17.0092 18.7724 17.3154 18.68C18.5199 18.3166 19.909 17.5372 20.3918 16.0806C20.4099 16.0258 20.425 15.9772 20.4365 15.94C20.4495 15.8981 20.4551 15.8801 20.4591 15.8686C20.4697 15.8376 20.4783 15.8059 20.4848 15.7738C20.6819 14.8 20.5207 13.7878 20.0309 12.9234L19.6522 12.2552C19.6433 12.2395 19.6338 12.224 19.6238 12.209C19.0538 11.3541 18.7497 10.3497 18.7497 9.32223V8.26653C18.7497 4.69347 15.6799 1.875 11.9997 1.875ZM14.4519 19.2333C12.8607 19.4055 11.1393 19.4056 9.54809 19.2334C10.2572 20.2023 11.1658 20.625 12 20.625C12.8342 20.625 13.7427 20.2022 14.4519 19.2333ZM6.74972 8.26653C6.74972 5.60812 9.05901 3.375 11.9997 3.375C14.9404 3.375 17.2497 5.60812 17.2497 8.26653V9.32223C17.2497 10.6365 17.636 11.9215 18.3602 13.0177L18.7258 13.6629C19.0307 14.201 19.1355 14.829 19.0224 15.4361L19.0062 15.488L19.0036 15.4964C18.9923 15.5329 18.981 15.5692 18.9679 15.6086C18.7154 16.3705 17.9152 16.9323 16.8821 17.2439C14.1501 18.0682 9.85627 18.0687 7.12213 17.2454C6.06633 16.9274 5.25671 16.374 5.02322 15.6239C5.00242 15.5571 4.99087 15.5063 4.98499 15.4771C4.86011 14.8563 4.9623 14.2123 5.2736 13.6629L5.63924 13.0177C6.36345 11.9215 6.74972 10.6365 6.74972 9.32223V8.26653Z" fill="#13193A"/>
</svg>
