<svg width="24" height="24" viewBox="0 0 24 24" fill="none" xmlns="http://www.w3.org/2000/svg">
<path fill-rule="evenodd" clip-rule="evenodd" d="M7.28699 2.60843C4.86662 1.34563 2.11419 3.60279 2.87859 6.22358L4.50954 11.8154C4.5447 11.936 4.5447 12.0641 4.50954 12.1846L2.87859 17.7765C2.11419 20.3973 4.86663 22.6544 7.28699 21.3916L20.0216 14.7475C22.2422 13.5889 22.2422 10.4112 20.0216 9.25257L7.28699 2.60843ZM5.90708 12.7502H11.2166C11.6308 12.7502 11.9666 12.4144 11.9666 12.0002C11.9666 11.586 11.6308 11.2502 11.2166 11.2502H5.90718L4.31859 5.80358C3.92419 4.45136 5.34433 3.28676 6.59314 3.93831L19.3277 10.5825C20.4735 11.1802 20.4735 12.8198 19.3278 13.4176L6.59314 20.0617C5.34433 20.7133 3.92419 19.5487 4.31859 18.1965L5.90708 12.7502Z" fill="#13193A"/>
</svg>
