<svg width="24" height="24" viewBox="0 0 24 24" fill="none" xmlns="http://www.w3.org/2000/svg">
<path opacity="0.25" d="M10.7492 3.75606C11.2783 2.74798 12.7215 2.74798 13.2506 3.75606L15.2243 7.51656C15.4362 7.92017 15.8298 8.19674 16.2813 8.25927L20.3903 8.82828C21.5633 8.99071 22.0277 10.4376 21.1685 11.2524L18.2033 14.0642C17.8579 14.3917 17.7007 14.8711 17.7851 15.3395L18.5046 19.3341C18.7102 20.4751 17.5295 21.3641 16.4897 20.8513L12.6247 18.9452C12.2308 18.7509 11.769 18.7509 11.3751 18.9452L7.51008 20.8513C6.47031 21.3641 5.28966 20.4751 5.49518 19.3341L6.2147 15.3395C6.29908 14.8711 6.14187 14.3917 5.7965 14.0642L2.83131 11.2524C1.97208 10.4376 2.43656 8.99071 3.60949 8.82828L7.71853 8.25927C8.17004 8.19674 8.56364 7.92017 8.77547 7.51656L10.7492 3.75606Z" fill="#13193A"/>
<path d="M10.7492 3.75606C11.2783 2.74798 12.7215 2.74798 13.2506 3.75606L15.2243 7.51656C15.4362 7.92017 15.8298 8.19674 16.2813 8.25927L20.3903 8.82828C21.5633 8.99071 22.0277 10.4376 21.1685 11.2524L18.2033 14.0642C17.8579 14.3917 17.7007 14.8711 17.7851 15.3395L18.5046 19.3341C18.7102 20.4751 17.5295 21.3641 16.4897 20.8513L12.6247 18.9452C12.2308 18.7509 11.769 18.7509 11.3751 18.9452L7.51008 20.8513C6.47031 21.3641 5.28966 20.4751 5.49518 19.3341L6.2147 15.3395C6.29908 14.8711 6.14187 14.3917 5.7965 14.0642L2.83131 11.2524C1.97208 10.4376 2.43656 8.99071 3.60949 8.82828L7.71853 8.25927C8.17004 8.19674 8.56364 7.92017 8.77547 7.51656L10.7492 3.75606Z" stroke="#13193A" stroke-width="1.5" stroke-miterlimit="10"/>
</svg>
