<svg width="24" height="24" viewBox="0 0 24 24" fill="none" xmlns="http://www.w3.org/2000/svg">
<path fill-rule="evenodd" clip-rule="evenodd" d="M12.0002 1.5C10.3494 1.5 8.86779 2.58123 8.39043 4.17245L8.36975 4.24139C6.78771 4.41784 5.21539 4.71 3.66553 5.11786L2.30931 5.47476C1.90874 5.58017 1.66946 5.99036 1.77488 6.39093C1.88029 6.79151 2.29048 7.03078 2.69105 6.92537L4.04727 6.56847C9.26047 5.19658 14.7399 5.19658 19.9531 6.56847L21.3093 6.92537C21.7099 7.03078 22.1201 6.79151 22.2255 6.39093C22.3309 5.99036 22.0916 5.58017 21.6911 5.47476L20.3348 5.11786C18.785 4.71 17.2127 4.41784 15.6306 4.24139L15.6099 4.17244C15.1326 2.58123 13.6509 1.5 12.0002 1.5ZM13.949 4.09758C13.5469 3.43083 12.8092 3 12.0002 3C11.1912 3 10.4535 3.43083 10.0514 4.09758C11.3494 4.02021 12.6509 4.02021 13.949 4.09758Z" fill="#13193A"/>
<path d="M3.90693 7.45602C4.31793 7.40451 4.69286 7.69594 4.74436 8.10694L6.08184 18.78C6.2229 19.9056 7.17991 20.7502 8.31437 20.7502H15.686C16.8205 20.7502 17.7775 19.9056 17.9185 18.78L19.256 8.10694C19.3075 7.69594 19.6824 7.40451 20.0934 7.45602C20.5044 7.50752 20.7959 7.88245 20.7444 8.29345L19.4069 18.9665C19.1718 20.8426 17.5768 22.2502 15.686 22.2502H8.31437C6.4236 22.2502 4.82858 20.8426 4.59348 18.9665L3.256 8.29345C3.2045 7.88245 3.49593 7.50752 3.90693 7.45602Z" fill="#13193A"/>
</svg>
